# xmcd CD database file
#
# Track frame offsets:
#	150
#	19534
#	31474
#	46065
#	59592
#	71965
#	84766
#	99080
#	112208
#	126990
#	143756
#	159947
#	178990
#	192191
#	205011
#	221501
#	233657
#	248107
#	261640
#	276813
#	292506
#	310916
#	323892
#
# Disc length: 4578 seconds
#
# Revision: 3
# Processed by: cddbd v1.5.2PL0 Copyright (c) Steve Scherf et al.
# Submitted via: CDex 1.51
#
DISCID=4a11e017
DTITLE=Various Artist - Arba Achrey HaTzaharayim
DYEAR=2005
DGENRE=Classic Israeli
TTITLE0=דודו אלהרר - בוא שיר עברי
TTITLE1=עדנה גורן - לפנות ערב
TTITLE2=חוה אלברשטיין - פרח הלילך
TTITLE3=גלי עטרי - תני לו פרח
TTITLE4=סקסטה - הדודאים
TTITLE5=שלישיית גשר הירקון - אותך
TTITLE6=צמד דרום - שיר אהבה ישן
TTITLE7=הדודאים - בלדה לשיער הארוך והשיער הקצר
TTITLE8=דני מסינג וצוות תפוח זהב - השמלה הסגולה
TTITLE9=יהודית רביץ - סליחות
TTITLE10=האחים והאחיות - כמו בלדה
TTITLE11=שרה בדישי - סתיו בחלונות
TTITLE12=הפרברים - ציפורים נודדות
TTITLE13=אמנון ברנזון עם מיכל טל ורפי גרנות - העגורים
TTITLE14=הדודאים - אבינועם בחור כארז
TTITLE15=האחים והאחיות - על ענפי שיטה
TTITLE16=יוסי בנאי ונורית גלרון - תחת עץ האהבה
TTITLE17=אריק לביא - נועה
TTITLE18=יהורם גאון - בעדן ילדים
TTITLE19=חוה אלברשטיין - ימי בנימינה
TTITLE20=מתי כספי - ילדותי השנייה
TTITLE21=עלי ושרון מוהר - תן לי יד
TTITLE22=אריק איינשטיין - עוף גוזל
EXTD=YEAR: 2005
EXTT0=
EXTT1=
EXTT2=
EXTT3=
EXTT4=
EXTT5=
EXTT6=
EXTT7=
EXTT8=
EXTT9=
EXTT10=
EXTT11=
EXTT12=
EXTT13=
EXTT14=
EXTT15=
EXTT16=
EXTT17=
EXTT18=
EXTT19=
EXTT20=
EXTT21=
EXTT22=
PLAYORDER=
